<?xml version="1.0" encoding="UTF-8"?>
<level>
  <owner>Fistachka</owner>
  <repo>elochka-two</repo>
  <version>v1.0.3</version>
  <next number="1" owner="stolbitsa" repo="malenkoy-elochke"/>
  <readme>
    <ru>0ca829492f72cb230a7d9d86f98a388398705c761169ae90d6e17ffca162daae</ru>
    <en>08b9f4f093692b67474169225a6b544f5f2d9047acb785673532155d488376d3</en>
  </readme>
  <license>b1b99f5538d1fd3702219bff50c665196dfa42f6ee755c37fe41a6178d6bc6e5</license>
  <exercise number="1">
    <scale>major</scale>
    <bpm>104</bpm>
    <lowestNote>5</lowestNote>
    <tonalities>5</tonalities>
    <video name="1t.mp4" size="1791198" type="video/mp4" volume="0.5">16c2c3268754803a0f3abc1790c9fbe9534aabfe07475da9634fe3d95c96f5d4</video>
    <notes>
      <note number="1" values="5" ticks="869" durationTicks="96" ppq="192" velocity="0.681"/>
      <note number="2" values="38" ticks="963" durationTicks="58" ppq="192" velocity="0.803"/>
      <note number="3" values="38" ticks="1061" durationTicks="96" ppq="192" velocity="0.689"/>
      <note number="4" values="28" ticks="1155" durationTicks="93" ppq="192" velocity="0.784"/>
      <note number="5" values="38" ticks="1250" durationTicks="91" ppq="192" velocity="0.671"/>
      <note number="6" values="18" ticks="1347" durationTicks="95" ppq="192" velocity="0.819"/>
      <note number="7" values="5" ticks="1444" durationTicks="58" ppq="192" velocity="0.719"/>
      <note number="8" values="5" ticks="1498" durationTicks="98" ppq="192" velocity="0.749"/>
    </notes>
  </exercise>
  <exercise number="2">
    <scale>major</scale>
    <bpm>104</bpm>
    <lowestNote>18</lowestNote>
    <tonalities>5</tonalities>
    <video name="2t.mp4" size="783355" type="video/mp4" volume="0.5">60db4aa81dbdc3c19f9c6db281d128649414f867cd96b7bf88afb3d89f7fe6b7</video>
    <notes>
      <note number="1" values="18" ticks="22" durationTicks="96" ppq="192" velocity="0.982"/>
      <note number="2" values="38" ticks="118" durationTicks="59" ppq="192" velocity="0.992"/>
      <note number="3" values="38" ticks="214" durationTicks="96" ppq="192" velocity="1"/>
      <note number="4" values="48" ticks="309" durationTicks="93" ppq="192" velocity="1"/>
      <note number="5" values="68" ticks="408" durationTicks="91" ppq="192" velocity="1"/>
      <note number="6" values="58" ticks="502" durationTicks="95" ppq="192" velocity="1"/>
    </notes>
  </exercise>
  <exercise number="3">
    <scale>major</scale>
    <bpm>104</bpm>
    <lowestNote>5</lowestNote>
    <tonalities>5</tonalities>
    <video name="3t.mp4" size="1238067" type="video/mp4" volume="0.5">4890de9415ae34dc488b9cdd2adbd3aaa6af6ed596da02e8cdd011390eaea434</video>
    <notes>
      <note number="1" values="58" ticks="97" durationTicks="96" ppq="192" velocity="0.952"/>
      <note number="2" values="6" ticks="193" durationTicks="61" ppq="192" velocity="0.957"/>
      <note number="3" values="6" ticks="291" durationTicks="96" ppq="192" velocity="0.947"/>
      <note number="4" values="48" ticks="390" durationTicks="55" ppq="192" velocity="0.954"/>
      <note number="5" values="48" ticks="486" durationTicks="91" ppq="192" velocity="0.942"/>
      <note number="6" values="38" ticks="582" durationTicks="93" ppq="192" velocity="0.952"/>
      <note number="7" values="28" ticks="677" durationTicks="94" ppq="192" velocity="0.912"/>
      <note number="8" values="18" ticks="771" durationTicks="98" ppq="192" velocity="0.967"/>
    </notes>
  </exercise>
  <exercise number="4">
    <scale>major</scale>
    <bpm>104</bpm>
    <lowestNote>5</lowestNote>
    <tonalities>5</tonalities>
    <video name="4t.mp4" size="986450" type="video/mp4" volume="0.5">b7f71ff1f481696917cdfc86fc3657d2155d5819a98c4174577b48744cfab06d</video>
    <notes>
      <note number="1" values="5" ticks="21" durationTicks="96" ppq="192" velocity="0.681"/>
      <note number="2" values="38" ticks="118" durationTicks="68" ppq="192" velocity="0.803"/>
      <note number="3" values="38" ticks="212" durationTicks="96" ppq="192" velocity="0.689"/>
      <note number="4" values="28" ticks="312" durationTicks="93" ppq="192" velocity="0.784"/>
      <note number="5" values="38" ticks="405" durationTicks="91" ppq="192" velocity="0.671"/>
      <note number="6" values="18" ticks="502" durationTicks="190" ppq="192" velocity="0.819"/>
    </notes>
  </exercise>
  <exercise number="5">
    <scale>major</scale>
    <bpm>104</bpm>
    <lowestNote>5</lowestNote>
    <tonalities>5</tonalities>
    <video name="5t.mp4" size="1476047" type="video/mp4" volume="0.5">a76e8ea12b3551e1702790887d5840a5a7aa301cfe07a6fb6f7fe99007e2956b</video>
    <notes>
      <note number="1" values="58" ticks="96" durationTicks="82" ppq="192" velocity="0.747"/>
      <note number="2" values="6" ticks="194" durationTicks="68" ppq="192" velocity="0.782"/>
      <note number="3" values="6" ticks="293" durationTicks="79" ppq="192" velocity="0.669"/>
      <note number="4" values="48" ticks="385" durationTicks="69" ppq="192" velocity="0.784"/>
      <note number="5" values="48" ticks="486" durationTicks="83" ppq="192" velocity="0.671"/>
      <note number="6" values="38" ticks="579" durationTicks="86" ppq="192" velocity="0.819"/>
      <note number="7" values="28" ticks="674" durationTicks="77" ppq="192" velocity="0.719"/>
      <note number="8" values="18" ticks="773" durationTicks="88" ppq="192" velocity="0.749"/>
    </notes>
  </exercise>
  <exercise number="6">
    <scale>major</scale>
    <bpm>104</bpm>
    <lowestNote>5</lowestNote>
    <tonalities>5</tonalities>
    <video name="6t.mp4" size="1133569" type="video/mp4" volume="0.5">46c69da1a2d750e3c190b733e98f773256a40694fe24c1124f1c613251c14f89</video>
    <notes>
      <note number="1" values="5" ticks="21" durationTicks="96" ppq="192" velocity="0.681"/>
      <note number="2" values="38" ticks="117" durationTicks="72" ppq="192" velocity="0.803"/>
      <note number="3" values="38" ticks="214" durationTicks="96" ppq="192" velocity="0.689"/>
      <note number="4" values="28" ticks="310" durationTicks="93" ppq="192" velocity="0.784"/>
      <note number="5" values="38" ticks="406" durationTicks="91" ppq="192" velocity="0.671"/>
      <note number="6" values="18" ticks="503" durationTicks="188" ppq="192" velocity="0.819"/>
    </notes>
  </exercise>
  <exercise number="7">
    <scale>major</scale>
    <bpm>104</bpm>
    <lowestNote>5</lowestNote>
    <tonalities>5</tonalities>
    <video name="7t.mp4" size="1793683" type="video/mp4" volume="0.5">e31d4b4f91303678673e6c06d68902186136ca03eba268771f2226e449cbb35a</video>
    <notes>
      <note number="1" values="5" ticks="773" durationTicks="96" ppq="192" velocity="0.677"/>
      <note number="2" values="38" ticks="867" durationTicks="58" ppq="192" velocity="0.795"/>
      <note number="3" values="38" ticks="965" durationTicks="96" ppq="192" velocity="0.685"/>
      <note number="4" values="28" ticks="1059" durationTicks="93" ppq="192" velocity="0.78"/>
      <note number="5" values="38" ticks="1154" durationTicks="91" ppq="192" velocity="0.669"/>
      <note number="6" values="18" ticks="1251" durationTicks="95" ppq="192" velocity="0.819"/>
      <note number="7" values="5" ticks="1348" durationTicks="58" ppq="192" velocity="0.717"/>
      <note number="8" values="5" ticks="1442" durationTicks="98" ppq="192" velocity="0.748"/>
    </notes>
  </exercise>
  <exercise number="8">
    <scale>major</scale>
    <bpm>104</bpm>
    <lowestNote>18</lowestNote>
    <tonalities>5</tonalities>
    <video name="8t.mp4" size="1067675" type="video/mp4" volume="0.5">7de3aeb1a7d9e5d27e600542d7f0486fda53acd5bb5cfd1d8d769b30a4721ebb</video>
    <notes>
      <note number="1" values="18" ticks="27" durationTicks="96" ppq="192" velocity="0.976"/>
      <note number="2" values="38" ticks="123" durationTicks="59" ppq="192" velocity="0.984"/>
      <note number="3" values="38" ticks="219" durationTicks="96" ppq="192" velocity="0.919"/>
      <note number="4" values="48" ticks="314" durationTicks="93" ppq="192" velocity="1"/>
      <note number="5" values="68" ticks="413" durationTicks="91" ppq="192" velocity="1"/>
      <note number="6" values="58" ticks="507" durationTicks="95" ppq="192" velocity="1"/>
    </notes>
  </exercise>
  <exercise number="9">
    <scale>major</scale>
    <bpm>104</bpm>
    <lowestNote>5</lowestNote>
    <tonalities>5</tonalities>
    <video name="9t.mp4" size="1766711" type="video/mp4" volume="0.5">588cba0ac6f8c2d6e48e8c303ac3c2a95d66e519077d45128d5efb6dd35547b4</video>
    <notes>
      <note number="1" values="58" ticks="97" durationTicks="96" ppq="192" velocity="0.945"/>
      <note number="2" values="6" ticks="193" durationTicks="61" ppq="192" velocity="0.953"/>
      <note number="3" values="6" ticks="291" durationTicks="96" ppq="192" velocity="0.945"/>
      <note number="4" values="48" ticks="390" durationTicks="55" ppq="192" velocity="0.953"/>
      <note number="5" values="48" ticks="486" durationTicks="91" ppq="192" velocity="0.937"/>
      <note number="6" values="38" ticks="582" durationTicks="93" ppq="192" velocity="0.945"/>
      <note number="7" values="28" ticks="677" durationTicks="94" ppq="192" velocity="0.906"/>
      <note number="8" values="18" ticks="771" durationTicks="98" ppq="192" velocity="0.961"/>
    </notes>
  </exercise>
  <exercise number="10">
    <scale>major</scale>
    <bpm>104</bpm>
    <lowestNote>5</lowestNote>
    <tonalities>5</tonalities>
    <video name="10t.mp4" size="1658312" type="video/mp4" volume="0.5">8d6a1a6fa2478c4438f19b0fa6d57368ce6520b9e847a4122c6ec7cb21d75208</video>
    <notes>
      <note number="1" values="5" ticks="21" durationTicks="96" ppq="192" velocity="0.677"/>
      <note number="2" values="38" ticks="118" durationTicks="68" ppq="192" velocity="0.795"/>
      <note number="3" values="38" ticks="212" durationTicks="96" ppq="192" velocity="0.685"/>
      <note number="4" values="28" ticks="312" durationTicks="93" ppq="192" velocity="0.78"/>
      <note number="5" values="38" ticks="405" durationTicks="91" ppq="192" velocity="0.669"/>
      <note number="6" values="18" ticks="502" durationTicks="190" ppq="192" velocity="0.819"/>
    </notes>
  </exercise>
  <exercise number="11">
    <scale>major</scale>
    <bpm>104</bpm>
    <lowestNote>5</lowestNote>
    <tonalities>5</tonalities>
    <video name="11t.mp4" size="1742596" type="video/mp4" volume="0.5">019864f1d2e1df3c3e8e86267af6869885b4d45d9cb1b323037c5f9df4b40a6c</video>
    <notes>
      <note number="1" values="58" ticks="96" durationTicks="82" ppq="192" velocity="0.74"/>
      <note number="2" values="6" ticks="194" durationTicks="68" ppq="192" velocity="0.78"/>
      <note number="3" values="6" ticks="293" durationTicks="79" ppq="192" velocity="0.661"/>
      <note number="4" values="48" ticks="385" durationTicks="69" ppq="192" velocity="0.78"/>
      <note number="5" values="48" ticks="486" durationTicks="83" ppq="192" velocity="0.669"/>
      <note number="6" values="38" ticks="579" durationTicks="86" ppq="192" velocity="0.819"/>
      <note number="7" values="28" ticks="674" durationTicks="77" ppq="192" velocity="0.717"/>
      <note number="8" values="18" ticks="773" durationTicks="88" ppq="192" velocity="0.748"/>
    </notes>
  </exercise>
  <exercise number="12">
    <scale>major</scale>
    <bpm>104</bpm>
    <lowestNote>5</lowestNote>
    <tonalities>5</tonalities>
    <video name="12t.mp4" size="1384766" type="video/mp4" volume="0.5">12a7d16999a7058ae04863b4df8d310ebb84fd75bacb2b62c5ca7378ba38b589</video>
    <notes>
      <note number="1" values="5" ticks="18" durationTicks="96" ppq="192" velocity="0.677"/>
      <note number="2" values="38" ticks="114" durationTicks="72" ppq="192" velocity="0.795"/>
      <note number="3" values="38" ticks="211" durationTicks="96" ppq="192" velocity="0.685"/>
      <note number="4" values="28" ticks="307" durationTicks="93" ppq="192" velocity="0.78"/>
      <note number="5" values="38" ticks="403" durationTicks="91" ppq="192" velocity="0.669"/>
      <note number="6" values="18" ticks="500" durationTicks="188" ppq="192" velocity="0.819"/>
    </notes>
  </exercise>
</level>
